<svg id="Layer_2" data-name="Layer 2" xmlns="http://www.w3.org/2000/svg" viewBox="0 0 570 380"><path d="M333.85,85.89h-3v2h3v-2Zm-6,0h-3v2h3v-2Zm-6,0h-3v2h3v-2Zm-6,0h-3v2h3v-2Zm-6,0h-3v2h3v-2Zm-6,0h-3v2h3v-2Zm-6,0h-3v2h3v-2Zm-6,0h-.91l-2.19.12.1,2,1.93-.1h1.07v-2Zm-6.11.29-3,.17.12,2,.67,0h0l1.54-.09.76,0-.12-2Zm-6,.36-3,.19.13,2,3-.2-.13-2Zm-6,.4-3,.21.14,2,.78-.06,2.21-.16-.13-2Zm-6,.44-3,.23.16,2,3-.24-.15-2Zm-6,.48-3,.27.18,2,3-.26-.17-2Zm-6,.55-3,.31.21,2,.78-.08h.07l2.13-.22-.19-2Zm-6,.65c-1,.12-2.05.24-3,.37l.26,2,1.2-.15h0L250,91l-.23-2Zm-6,.8c-1.11.17-2.13.34-3,.51l.37,2c.9-.17,1.89-.33,3-.5l-.3-2Zm-6,1.16c-1,.23-2,.48-3,.73l.5,1.93,2.91-.71-.45-2Zm-5.89,1.51c-1,.27-2,.55-2.92.84l.57,1.91,2.88-.82-.53-1.93ZM226,94.25c-1,.31-2,.62-2.89.93l.63,1.9c.91-.3,1.86-.61,2.86-.92l-.6-1.91Zm-5.76,1.89c-1.06.37-2,.71-2.85,1l.68,1.88.33-.13,2.5-.88-.66-1.89Zm-5.7,2.08-.67.25a2,2,0,0,0-.81.61l-1.45,1.79,1.55,1.26.27-.33,1.18-1.46h.07l.05,0h0l.5-.19-.72-1.86Zm-4.82,5-1.88,2.33,1.56,1.26,1.76-2.19.12-.15-1.56-1.25Zm-3.76,4.67-1.89,2.34,1.56,1.25.55-.68h0l0,0h0l0,0,1.26-1.58-1.55-1.25Zm-3.77,4.67-1.88,2.34,1.56,1.26.08-.1,1.8-2.24-1.56-1.26Zm-3.76,4.68-1.87,2.35,1.56,1.25,1.87-2.34-1.56-1.26Zm-3.75,4.69-1.87,2.34,1.56,1.25,1.1-1.38h0v0l.07-.09h0l.11-.14.56-.7-1.56-1.25Zm-3.75,4.69c-.65.82-1.27,1.61-1.87,2.35l1.57,1.25,1.87-2.35-1.57-1.25Zm-3.73,4.71c-.7.89-1.33,1.69-1.86,2.38l1.58,1.22,1.85-2.36-1.57-1.24Zm-2.8,4.36-.48.38a1.59,1.59,0,0,0-.37.18l-.08-.06a3.31,3.31,0,0,0-.24.38h0l0,0-.43.34h.05a4,4,0,0,0,.83.81l.47-.71h0l-.47.71a1.18,1.18,0,0,0,.36.17h.23a.77.77,0,0,0,.67-.49h0l.11-.16-.74-.51.45-.68h0a3.33,3.33,0,0,1-.42-.45Zm-5.63-4.56-.25,2h.2a4.52,4.52,0,0,1,2.41,1.34l1.43-1.4a6.4,6.4,0,0,0-3.79-1.95Zm-3.25-.07h0c-1.21,0-2.21,0-3.15.12l.17,2c1-.09,2.05-.11,3-.11h0v-2Zm-6.44.63a12,12,0,0,0-3.35,1.37l1.07,1.7a2.5,2.5,0,0,1,.35-.21h.09a9.55,9.55,0,0,1,1.64-.67h.08l.61-.17-.49-1.94Zm-6,4a14.2,14.2,0,0,0-1.57,3.09l1.87.7c.07-.19.15-.39.23-.58h.08v0h0a12.17,12.17,0,0,1,1-1.87L163,135.73Zm-2.46,6.3c-.15.72-.21,1.27-.24,1.53a8.7,8.7,0,0,0-.2,1.78l2,0a5.85,5.85,0,0,1,.07-.92h0v0h0v0h0v0h0c0-.21.07-.36.08-.43h0v0h0a12.31,12.31,0,0,1,.22-1.47l-2-.38Zm2.17,6.25-1.78.91a7,7,0,0,0,2.87,2.95l1-1.74-.2-.12h-.17a5,5,0,0,1-1.1-1h0l0,0h-.05v0h0a4.79,4.79,0,0,1-.44-.7Zm4.72,3.53-.51,1-.28.07.08.33-.18.36.3.14.26,1.11,1.22-.29h0l.22-.05h0l.86-.21h0l.6-.14-.15-.63.28-.48h0l-.46-.26a7.78,7.78,0,0,1-1-.37h0l-.51-.23h0l-.75-.36Zm-3.58,1.67c-.65.1-1.7.28-3,.55l.39,2,.65-.13h0c1-.18,1.73-.31,2.29-.4l-.31-2Zm-6,1.2c-1,.23-2,.48-3,.74l.51,1.94q1.11-.3,2.13-.54h.15l.63-.15-.45-1.95Zm-5.92,1.57c-1,.29-2,.6-2.92.92l.63,1.9c1-.33,1.94-.63,2.86-.9l-.57-1.92Zm-5.81,1.93c-1,.35-1.93.72-2.86,1.1l.75,1.85,1.45-.57h0l0,0h.05l0,0h0l0,0h.45l0,0h.1l0,0h0l.56-.21-.69-1.87Zm-5.69,2.3c-.94.41-1.88.85-2.78,1.3l.88,1.79c.91-.44,1.81-.87,2.72-1.27l-.82-1.82Zm-5.52,2.71-.24.13c-.82.45-1.64.92-2.45,1.41l1,1.71.53-.32h0l.06,0h0l0,0h0l0,0h.1l0,0h0l0,0h0l0,0h0l0,0h0l0,0h.05l0,0h0l0,0h0l0,0h0l0,0h0l0,0h0l.11-.07h0l0,0h0l.6-.34h0l.15-.08h0l0,0h0l0,0h0l.08,0h0l0,0h0l0,0h0l0,0h0l.06,0h.12l.05,0-1-1.76Zm-5.29,3.2c-.85.57-1.7,1.16-2.53,1.78l1.19,1.61c.78-.58,1.6-1.16,2.45-1.73l-1.11-1.66Zm-5,3.66c-.8.64-1.59,1.31-2.37,2l1.32,1.51.25-.22h0c.41-.35.84-.72,1.28-1.08h0v0h0l0,0h0l0,0h0l0,0h.06l.09-.08h0l.41-.33-1.25-1.56ZM120,174.11c-.74.7-1.48,1.43-2.19,2.16l1.43,1.4c.66-.68,1.37-1.39,2.13-2.11L120,174.11Zm-4.3,4.41c-.69.78-1.37,1.57-2,2.35l1.55,1.26,1-1.14h0v0h0l0,0h0v0h0v0h0l.69-.79h.1v0h0v0h0l.07-.08-1.49-1.34Zm-3.92,4.81-.33.47a1.64,1.64,0,0,0-.16.29s-.41.86-1,2.3l1.83.8c.53-1.22.9-2,1-2.22h0l.08-.11h0l0,0h0c0-.07.11-.15.18-.26l-1.62-1.17Zm-2.71,5.85c-.37.87-.75,1.81-1.15,2.81l1.86.74.07-.18h0c.36-.92.72-1.78,1-2.58l-1.84-.77Zm-2.25,5.65c-.36,1-.71,1.94-1,2.86l1.89.66c.32-.94.66-1.87,1-2.78h0v0h0l-1.88-.7Zm-2,5.77c-.32,1-.61,2-.86,3l1.93.52c.06-.23.12-.46.19-.7h0v0h0v0h0c.09-.34.19-.68.3-1h0v0h0v0h0v0h0v0h0v0h0v0h0v0h0v0h0l.21-.69h0l0,0h0v0h0v0h0v0h0v0l-1.91-.6Zm-1.57,6c-.05.21-.08.42-.12.63-.13.76-.26,1.56-.39,2.39l2,.31c.13-.82.26-1.61.39-2.36h0c0-.19.07-.39.11-.59l-2-.38Zm-1,6c-.14,1-.28,2-.42,3l2,.27c.14-1,.28-2,.42-3l-2-.29Zm-.82,6c-.13,1-.25,2-.37,3l2,.23c.11-1,.24-2,.37-3l-2-.25Zm-.71,6c-.12,1.05-.22,2.06-.32,3l2,.2.06-.6h0q.1-1.14.24-2.37l-2-.22Zm-.58,6c-.1,1.29-.16,2.34-.18,3.12l2,0c0-.24,0-.5,0-.79h0v0h0v0h0c0-.61.08-1.32.14-2.12l-2-.16Zm2,6.14-2,.18c.07.87.17,1.89.29,3l2-.21v0h0c-.11-1.1-.21-2.1-.28-3Zm.61,6-2,.22c.11,1,.22,2,.34,3l2-.23-.12-1c-.07-.68-.15-1.36-.22-2Zm.69,6-2,.24.36,3,2-.24c0-.47-.11-.93-.17-1.4v0h0v0h0l0-.21h0v-.09c0-.39-.1-.78-.14-1.17Zm.72,6-2,.24.37,3,2-.25c-.07-.56-.14-1.13-.22-1.71v-.07h0c0-.39-.09-.79-.14-1.19Zm.74,6-2,.25.38,3,2-.25c0-.21-.06-.44-.09-.68h0c-.06-.47-.13-1-.2-1.55h0v0h0v0h0v-.08h0V261h0l0-.42Zm.87,5.93-1.91.62a11.68,11.68,0,0,0,1.68,3.22l1.61-1.19-.32-.45h0l0-.05h0l0,0h-.06l0,0h0a8.32,8.32,0,0,1-.91-1.95Zm3.46,4.8L108,272.91a17.1,17.1,0,0,0,2.86,1.84l.91-1.78c-.37-.19-.71-.39-1-.59h0l0,0h-.46l0,0h0l0,0h0c-.33-.22-.64-.45-.93-.68Zm4.52,3.65-1.72,1c.49.81,1.07,1.7,1.72,2.64l1.64-1.15c-.39-.56-.76-1.11-1.11-1.66h0l0-.08h0v0h0l0,0h0l0-.06h0c-.12-.2-.25-.4-.37-.61Zm3.42,4.93-1.58,1.22c.59.78,1.24,1.58,1.91,2.4l1.54-1.28c-.59-.71-1.23-1.51-1.87-2.34Zm3.82,4.63-1.51,1.32c.55.62.91,1,1,1.12a9.61,9.61,0,0,0,1.42,1.28l1.2-1.6a7.65,7.65,0,0,1-1.12-1h0l-1-1.1Zm4.75,3.53L125.1,290a11.92,11.92,0,0,0,3.55.66l0-2c-.33,0-.66,0-1-.08h-1c-.33-.08-.63-.17-.92-.27Zm5.93.56,0,2,3,0,0-2h-1.08l-1.83,0Zm6,.09,0,2,3,.05,0-2-1.62,0-1.38,0Zm6,.11,0,2,3,.06,0-2-3-.06Zm8.27-2.54c-.94.62-1.82,1.16-2.54,1.59l1,1.72c.9-.54,1.78-1.09,2.62-1.63l-1.1-1.68Zm4.81-3.59c-.35.31-.72.62-1.09.92h-.1l0,0h0c-.36.29-.74.57-1.11.85h0l1.19,1.61c.92-.68,1.76-1.35,2.48-2l-1.33-1.5Zm3.09-3.13h-.41c-.09.17-.2.33-.31.5h0l0,0h0l-.25.35.68.52v0h0v.51h.66l.24.18.13-.18h.71l0-2h-1.45Zm4.45.07,0,2,3,.07,0-2-3-.07Zm6,.15-.06,2,3,.08,0-2-3-.08Zm6,.16-.06,2,3,.08.06-2-3-.08Zm6,.17-.06,2,3,.08.05-2h-.19l-2.8-.08Zm6,.17-.06,2,3,.08.06-2-1.4,0h-.22l-1.38,0Zm6,.17-.06,2,3,.09.06-2-3-.09Zm6,.18-.06,2,3,.09.06-2h-.2l-2.8-.08Zm6,.18-.06,2,3,.09.06-2-.59,0-2.16-.06Zm6,.18-.06,2,3,.09.06-2-1.76-.06-1.23,0Zm6,.18-.06,2,3,.09.06-2-3-.09Zm6,.18-.06,2,3,.09.06-2-3-.09Zm6,.18-.06,2,3,.09.07-2-1.15,0-1.62-.05Zm6,.19-.06,2,3,.09.06-2h-.46l-2.54-.08Zm6,.18-.06,2,3,.09.06-2-3-.09Zm6,.19-.06,2,3,.09.06-2-2.12-.07-.88,0Zm6,.18-.06,2,3,.1.06-2H257l-2.66-.09Zm6,.19-.06,2,3,.09.06-2-3-.09Zm6,.19-.06,2,3,.09.06-2-1.29,0h-.05l-1.66-.05Zm6,.18-.06,2,3,.1.06-2-.59,0-2.41-.08Zm6,.19-.06,2,3,.09.06-2-1.37,0-1.62-.05Zm6,.19-.06,2,3,.09.07-2-.68,0-2.33-.07Zm6,.19,0,.45-1,.9h0s.76.85,1.82,1.9l1.42-1.41c-.39-.39-.73-.74-1-1h0l0,0h0l0,0h0c-.25-.26-.44-.46-.54-.58h0l0,0h-.52Zm4.39,3.89-1.32,1.51a22.29,22.29,0,0,0,2.61,2l1.08-1.68a19.5,19.5,0,0,1-1.87-1.41h0l-.46-.4Zm5.17,2.84-.28,2a24.36,24.36,0,0,0,3.26.21v-2c-.86,0-1.72-.05-2.51-.13h-.05l-.43,0Zm8.08-1.53V289h0c0,.12,0,.24,0,.36h-.14a4.66,4.66,0,0,1-1.44.55h-.13l-.41.08.35,2a6.51,6.51,0,0,0,3-1.17,2,2,0,0,0,.54-.67c.27.79.57,1.57.9,2.33l1.83-.79c-.44-1-.78-2-1-2.81l-1.49.46a.61.61,0,0,0,0-.14c0-.22,0-.44,0-.64l-2,0Zm1.67-3.63h0a1,1,0,0,0-.48.13H309a1.47,1.47,0,0,0-.4.39l.68.5h0l-.68-.5a1,1,0,0,0-.11.17l.64.38-.56.2h0a2,2,0,0,1,.08.28l.06,0a1,1,0,0,0,.84.43h0a.9.9,0,0,0,.65-.25h0l-.56-.41.94-.24h0c0-.15-.07-.28-.1-.38h0a.89.89,0,0,0,0-.13h0s0,0,0-.05h0a1,1,0,0,0-.85-.51Zm4.19,9.49-1.75,1c.51.92,1.08,1.83,1.69,2.71l1.64-1.14-.25-.36c-.5-.75-.94-1.48-1.33-2.18Zm3.4,4.93-1.54,1.28c.18.22.37.44.56.65a2,2,0,0,0,1.5.69h2.19v-2H317.7l-.52-.62Zm8.71.62h-3v2h3v-2Zm6,0h-3v2h3v-2Zm6,0h-3v2h3v-2Zm5.23-2.31c-.72.61-1.35,1.1-1.84,1.47h0l-.51.37,1.16,1.63c.55-.39,1.44-1,2.5-2l-1.29-1.52Zm4.25-4.23c-.7.81-1.39,1.54-2.05,2.2l1.41,1.42c.75-.75,1.47-1.52,2.15-2.31l-1.51-1.31Zm3.52-4.84c-.53.88-1.09,1.71-1.66,2.49l1.62,1.18c.62-.86,1.22-1.75,1.75-2.64l-1.71-1Zm2.61-5.39h0v0h0c-.31.82-.65,1.61-1,2.37h0l0,.06h0l0,0h0l0,0h0v0h0l0,0h0v0h0l1.8.88c.46-1,.89-1.95,1.25-2.94l-1.88-.69Zm1.75-5.74c-.15.56-.32,1.15-.49,1.76h0v0h0v0h0v.06h0v0h0v0h0v0h0v0h0v0h0v0h0v0h0v0h0v0h0v0h0v0h0v0h0v0h0v0h0v0h0v0h0v0h0v0h0l-.11.38,1.92.57c.29-1,.57-2,.83-2.93l-1.93-.52Zm1.36-5.85-.18.89h0v0h0v0h0v0h0v0h0c-.09.46-.2.95-.31,1.45h0v0h0v0h0v0h0c0,.11-.05.23-.08.34l1.95.45c.24-1,.46-2,.64-3l-2-.38Zm.78-5.94c0,.08,0,.17,0,.27h0v0h0c0,.23,0,.49-.06.77h0c-.05.51-.12,1.11-.21,1.79l2,.28c.16-1.17.26-2.23.31-3.16l-2-.1Zm4.25-3.55-2.6,1.5,1,1.73,2.6-1.5-1-1.73Zm5.2-3-2.19,1.26h-.07l-.34.19,1,1.74,2.6-1.5-1-1.73Zm5.2-3-1.14.66h0l0,0h0l-1.41.81,1,1.73,2.6-1.49-1-1.74Zm5.2-3-1.25.72h0l-1.33.77,1,1.73,2.6-1.5-1-1.73Zm5.2-3-1.65.95h0l0,0h0l-.9.51,1,1.74,2.6-1.5-1-1.73Zm5.2-3-.55.32h0l-.05,0h0l-2,1.13,1,1.73,2.6-1.5-1-1.73Zm5.2-3-.34.2h-.06l-2.2,1.26,1,1.74,2.6-1.5-1-1.73Zm5.2-3-1.1.64h-.05l-1.45.84,1,1.73L399,243l-1-1.74Zm3.37-1.93-1.81,1c.1.39.25.95.45,1.6l1.58-.5v0l.12-.07.2-.06v-.05h0c-.37-1.18-.54-2-.54-2Zm1.61,4.84-1.82.82a20.14,20.14,0,0,0,1.59,2.93l1.66-1.11-.07-.12h0v0h0v0h0v0h0l0,0h0v0h-.06v0h0l0,0h0a19.22,19.22,0,0,1-1.18-2.24Zm3.4,4.89-1.27,1.54a8.85,8.85,0,0,0,1.17.82,2,2,0,0,0,1,.28h1.88v-2h-2a8.17,8.17,0,0,1-.85-.6Zm5.8.66,0,2,3,0,0-2h-.53l-2.11,0Zm6,.05,0,2,3,0,0-2h-3Zm8.67-1.2a12.29,12.29,0,0,1-1.2.75h0l0,0h0l-.09,0h-.25l0,0h-1l0,2h.33a2.1,2.1,0,0,0,.61-.09,11.52,11.52,0,0,0,2.92-1.56l-1.16-1.62Zm3.7-4.62c-.1.23-.2.46-.31.68h0l0,0h0v0h0a10.17,10.17,0,0,1-1.14,1.73l1.56,1.26a13.18,13.18,0,0,0,1.82-3l-1.85-.78Zm1.68-5.76-.12.52h0v0h0v.06h0v0h0v0h0l0,.15h0v0h0v0h0v0h0v.05h0v0h0v0h0v0h0v0h0v0h0v0h0c-.16.62-.32,1.21-.47,1.78l1.92.53c.25-.87.5-1.87.77-3l-2-.47Zm1.29-5.86c-.19.94-.4,1.93-.62,2.94l2,.42c.22-1,.43-2,.62-3l-2-.4Zm1.13-5.89c-.08.41-.23,1.25-.44,2.35v.05c0,.17-.07.36-.11.55l2,.37.55-3-2-.35Zm2.05-6h-2v3h2v-3Zm0-6h-2v3h2v-3Zm0-6h-2v3h2v-3Zm0-6h-2v3h2v-3Zm0-6h-2v3h2v-3Zm.59-5.91h-2v2.28h0l-.19.69,1.92.55.2-.69a2.08,2.08,0,0,0,.07-.55V190.5Zm0-6h-2v3h2v-3Zm0-6h-2v3h2v-3Zm-.17-6.58-1.91.59,0,.09.05.18h0v2.72h2v-2.72a2.2,2.2,0,0,0-.08-.58l-.09-.28Zm-1.81-5.75-1.91.62c.08.24.16.48.23.71l.55,1.7c0,.15.09.3.14.44l1.9-.6c-.26-.84-.57-1.81-.91-2.87Zm-1.91-5.73-1.89.65c.13.38.26.76.38,1.13v0h0c.12.36.24.71.35,1.06h0v0h0v0l.18.54,1.9-.63c-.31-.94-.64-1.9-1-2.87Zm-2.05-5.71-1.87.72.53,1.4q.26.69.51,1.41l1.88-.67c-.35-1-.71-2-1.05-2.86Zm-2.11-5.27-1.95.42c.06.27.11.54.15.8h0c.28.53.59,1.2.92,2l1.84-.79c-.3-.69-.58-1.3-.83-1.8,0-.2-.08-.41-.13-.61Zm-2.53-6.11-1.72,1A24,24,0,0,1,426.4,147l1.83-.79a24.87,24.87,0,0,0-1.48-2.9ZM423,138.21l-1.51,1.31c.35.41.72.85,1.09,1.32h0l0,0h0l0,0h.06v0h0l0,0h0l0,0h0v0h0c.19.25.39.5.58.77l1.61-1.18c-.62-.86-1.28-1.69-2-2.48Zm-5.58-4.15-.64,1.9a8.19,8.19,0,0,1,2.05.94h.06l.11.08h0l.36.3h0l1.33-1.5c-.25-.22-.48-.41-.68-.56a10,10,0,0,0-2.63-1.25Zm-4.39.21-.45.53a.86.86,0,0,0,.35.2h0l.09-.73Zm.14-1.87-1.63,1.16.18.25h0l0,0h0l0,0h0v0h0v0h0l0,.07h0l0,.07h0a5.25,5.25,0,0,0,.64.7l.45-.53h0L413,135h0l.63.12.31.07.41-2-.58-.12a6.73,6.73,0,0,1-.55-.71Zm-3-4.93-1.75,1c.54.94,1,1.81,1.51,2.59l1.72-1c-.45-.74-.95-1.59-1.48-2.54Zm-2.85-5.22-1.77.93.25.47c.39.74.79,1.47,1.17,2.18l1.76-1-1.41-2.62Zm-2.76-5.3-1.78.91.51,1c.07.15.15.3.23.44v0c.2.4.41.8.62,1.2l1.77-.93c-.46-.88-.92-1.76-1.37-2.65Zm-2.7-5.34-1.79.9.11.22h0l0,0v0h0l0,.08h0l0,0h0l0,0v0l1.11,2.19,1.78-.91c-.46-.9-.91-1.8-1.34-2.67Zm-2.67-5.36-1.79.88q.3.63.63,1.29l0,0h0l.68,1.37,1.79-.89-1.33-2.68Zm-2.62-5.38-1.8.87.07.14h0l.81,1.67c.13.28.28.57.43.89l1.8-.88c-.62-1.26-1.07-2.2-1.31-2.69Zm-3-6-.9,1.79c.77.38,1.24.64,1.35.7h0v.06h0v0h0l.19,1.28,2-.29L396,97.08a2,2,0,0,0-1-1.46s-.52-.29-1.43-.75ZM388,92.3l-.78,1.85h.07c1,.41,1.87.81,2.68,1.18l.83-1.82c-.92-.43-1.87-.84-2.8-1.24Zm-5.75-2.18L381.58,92q1.46.49,2.82,1l.71-1.87c-1-.37-1.95-.72-2.9-1Zm-5.95-1.71-.45,2c1,.23,1.95.48,2.9.76l.56-1.92c-1-.3-2-.56-3-.79Zm-6.2-1-.17,2,.85.08h0c.7.07,1.41.16,2.12.27l.32-2c-.77-.12-1.52-.21-2.25-.28l-.87-.08ZM364,87l-.12,2,3,.19.13-2L364,87Zm-6-.31-.09,2,2.26.11h.18l.56,0,.1-2-3-.14Zm-6-.26-.08,2,3,.12.09-2-3-.12Zm-6-.21-.06,2,3,.1.07-2-3-.1Zm-6-.19-.06,2,3,.09.06-2-3-.09Zm-6-.16-.05,2h.23l2.06,0h.05l.66,0,.06-2-3-.08Z"/></svg>